<?xml version="1.0" encoding="UTF-8"?>
<!DOCTYPE svg PUBLIC "-//W3C//DTD SVG 1.1//EN" "http://www.w3.org/Graphics/SVG/1.1/DTD/svg11.dtd">
<svg xmlns="http://www.w3.org/2000/svg" version="1.1" width="100px" height="100px" style="shape-rendering:geometricPrecision; text-rendering:geometricPrecision; image-rendering:optimizeQuality; fill-rule:evenodd; clip-rule:evenodd" xmlns:xlink="http://www.w3.org/1999/xlink">
<g><path style="opacity:0.79" fill="#000000" d="M 34.5,-0.5 C 37.8333,-0.5 41.1667,-0.5 44.5,-0.5C 50.3286,1.15516 54.4952,4.82183 57,10.5C 57.3085,15.6218 57.4751,20.6218 57.5,25.5C 58.086,25.2907 58.586,24.9574 59,24.5C 59.3333,21.8333 59.6667,19.1667 60,16.5C 60.7247,15.9415 61.5581,15.6082 62.5,15.5C 69.0364,17.9038 72.7031,22.5704 73.5,29.5C 72.4463,33.4702 71.9463,37.4702 72,41.5C 79.8491,49.3673 81.5157,58.3673 77,68.5C 67.2652,78.5646 55.4319,82.0646 41.5,79C 22.7939,74.3185 14.2939,62.4852 16,43.5C 17.6255,40.8723 19.6255,38.539 22,36.5C 22.4221,34.6447 22.9221,32.8114 23.5,31C 22.4403,28.7487 21.6069,26.5821 21,24.5C 25.6581,21.4362 29.3247,22.4362 32,27.5C 37.7348,22.3599 39.7348,16.0265 38,8.5C 36.0847,5.76488 34.918,2.76488 34.5,-0.5 Z M 42.5,5.5 C 51.9631,8.26127 54.9631,14.4279 51.5,24C 53.1789,30.552 57.0122,32.052 63,28.5C 63.8624,26.913 64.5291,25.2464 65,23.5C 66,24.5 67,25.5 68,26.5C 66.9418,32.0556 66.6084,37.7223 67,43.5C 69,46.1667 71,48.8333 73,51.5C 76.3782,61.4129 73.2116,68.4129 63.5,72.5C 63.5071,68.3375 63.3404,64.0041 63,59.5C 61.6167,55.1864 59.2834,51.5197 56,48.5C 55.228,48.6448 54.5613,48.9781 54,49.5C 53.7744,52.095 53.2744,54.595 52.5,57C 50.6086,57.3087 49.2752,56.4753 48.5,54.5C 54.0452,47.2588 53.7119,40.4255 47.5,34C 46.0563,33.2195 44.723,33.3861 43.5,34.5C 43.9204,37.1492 43.4204,39.8159 42,42.5C 39,46.1667 36,49.8333 33,53.5C 32.0943,55.7438 31.5943,58.0772 31.5,60.5C 31.9394,63.6054 32.4394,66.6054 33,69.5C 23.642,64.1174 19.642,56.1174 21,45.5C 22.2899,43.208 23.9565,41.208 26,39.5C 26.9734,37.6079 27.6401,35.6079 28,33.5C 38.4806,31.1641 43.6473,24.4974 43.5,13.5C 43.3856,10.7825 43.0523,8.11586 42.5,5.5 Z M 45.5,47.5 C 43.2327,51.4274 43.066,55.4274 45,59.5C 47.5715,62.3468 50.5715,63.0135 54,61.5C 54.5885,63.8633 56.0885,64.8633 58.5,64.5C 58.8373,68.9943 56.8373,71.8276 52.5,73C 41.4015,73.9017 36.2349,68.7351 37,57.5C 38.9481,53.3875 41.7814,50.0541 45.5,47.5 Z"/></g>
<g><path style="opacity:0.81" fill="#000000" d="M 77.5,99.5 C 74.1667,99.5 70.8333,99.5 67.5,99.5C 61.0121,97.5968 54.3455,95.9301 47.5,94.5C 39.3788,96.1819 31.3788,97.8486 23.5,99.5C 20.1667,99.5 16.8333,99.5 13.5,99.5C 10.1276,94.2655 11.1276,90.0988 16.5,87C 13.8428,80.9975 15.6762,77.8308 22,77.5C 30.7406,78.7815 39.4073,80.4481 48,82.5C 59.0054,79.5636 70.172,78.0636 81.5,78C 84.8221,83.0775 83.8221,87.0775 78.5,90C 79.9897,93.3972 79.6564,96.5639 77.5,99.5 Z M 20.5,82.5 C 24.6538,82.6307 28.6538,83.464 32.5,85C 29.3056,85.5923 26.1389,85.4257 23,84.5C 21.6244,84.3158 20.7911,83.6491 20.5,82.5 Z M 72.5,82.5 C 79.5692,82.7433 79.9026,83.5766 73.5,85C 55.5194,88.2746 37.5194,91.4412 19.5,94.5C 18.5,94.1667 17.5,93.8333 16.5,93.5C 35.2833,89.8096 53.9499,86.1429 72.5,82.5 Z M 62.5,92.5 C 66.4559,91.2931 70.4559,91.6264 74.5,93.5C 70.4779,94.2365 66.4779,93.9032 62.5,92.5 Z"/></g>
</svg>
