<?xml version="1.0" encoding="UTF-8"?>
<!DOCTYPE svg PUBLIC "-//W3C//DTD SVG 1.1//EN" "http://www.w3.org/Graphics/SVG/1.1/DTD/svg11.dtd">
<svg xmlns="http://www.w3.org/2000/svg" version="1.1" width="100px" height="100px" style="shape-rendering:geometricPrecision; text-rendering:geometricPrecision; image-rendering:optimizeQuality; fill-rule:evenodd; clip-rule:evenodd" xmlns:xlink="http://www.w3.org/1999/xlink">
<g><path style="opacity:0.87" fill="#000000" d="M 22.5,10.5 C 25.0838,11.0483 26.0838,12.715 25.5,15.5C 26.8333,15.5 28.1667,15.5 29.5,15.5C 29.5,16.8333 29.5,18.1667 29.5,19.5C 28.1667,19.5 26.8333,19.5 25.5,19.5C 25.5,20.8333 25.5,22.1667 25.5,23.5C 24.1667,23.5 22.8333,23.5 21.5,23.5C 21.5,22.1667 21.5,20.8333 21.5,19.5C 19.3352,19.8841 17.6685,19.2174 16.5,17.5C 17.6685,15.7826 19.3352,15.1159 21.5,15.5C 21.366,13.7085 21.6993,12.0418 22.5,10.5 Z"/></g>
<g><path style="opacity:0.767" fill="#000000" d="M 71.5,10.5 C 71.6612,26.6519 79.9945,34.3185 96.5,33.5C 96.0972,39.7185 93.7638,45.0518 89.5,49.5C 85.9155,50.7132 84.7488,49.3799 86,45.5C 87.9927,43.1825 89.1594,40.5158 89.5,37.5C 76.8846,36.7238 69.3846,30.0571 67,17.5C 62.1667,19.6667 58.6667,23.1667 56.5,28C 55.2068,28.49 53.8734,28.6567 52.5,28.5C 52.7247,24.2464 54.3914,20.5797 57.5,17.5C 61.7272,14.053 66.3938,11.7196 71.5,10.5 Z"/></g>
<g><path style="opacity:0.813" fill="#000000" d="M 40.5,31.5 C 52.7186,29.0032 61.3852,33.3366 66.5,44.5C 85.4846,44.8125 92.6512,54.1458 88,72.5C 85.6849,76.8168 82.1849,79.6502 77.5,81C 59.8333,81.6667 42.1667,81.6667 24.5,81C 15.9378,77.152 13.1045,70.652 16,61.5C 18.3795,56.7281 22.2129,54.0615 27.5,53.5C 26.885,43.1401 31.2183,35.8068 40.5,31.5 Z M 42.5,36.5 C 54.6233,35.1187 61.79,40.452 64,52.5C 72.5467,48.3501 79.2133,50.3501 84,58.5C 86.1769,68.9851 82.0103,75.1517 71.5,77C 57.5,77.6667 43.5,77.6667 29.5,77C 21.7601,75.7001 18.9268,71.2001 21,63.5C 23.4266,59.2099 26.9266,57.5432 31.5,58.5C 30.4483,48.6024 34.1149,41.2691 42.5,36.5 Z"/></g>
<g><path style="opacity:0.791" fill="#000000" d="M 6.5,34.5 C 8.8089,35.3877 10.4756,37.0544 11.5,39.5C 8.67421,44.6232 5.67421,44.6232 2.5,39.5C 4.20651,38.1274 5.53984,36.4607 6.5,34.5 Z"/></g>
</svg>
