<?xml version="1.0" encoding="UTF-8"?>
<!DOCTYPE svg PUBLIC "-//W3C//DTD SVG 1.1//EN" "http://www.w3.org/Graphics/SVG/1.1/DTD/svg11.dtd">
<svg xmlns="http://www.w3.org/2000/svg" version="1.1" width="100px" height="100px" style="shape-rendering:geometricPrecision; text-rendering:geometricPrecision; image-rendering:optimizeQuality; fill-rule:evenodd; clip-rule:evenodd" xmlns:xlink="http://www.w3.org/1999/xlink">
<g><path style="opacity:0.768" fill="#000000" d="M 37.5,7.5 C 50.8833,5.1032 60.0499,10.1032 65,22.5C 84.8725,19.7054 93.5391,28.3721 91,48.5C 86.4903,58.6745 78.657,63.0079 67.5,61.5C 67.5,60.1667 67.5,58.8333 67.5,57.5C 81.3718,57.1349 87.5384,50.1349 86,36.5C 83.463,29.8163 78.6296,26.483 71.5,26.5C 68.0365,26.7641 64.7031,27.2641 61.5,28C 58.2631,14.4562 49.9297,9.78954 36.5,14C 29.4389,19.0018 26.7722,25.8352 28.5,34.5C 23.8791,33.9927 19.5458,34.826 15.5,37C 9.54969,49.5956 13.5497,56.4289 27.5,57.5C 27.5,58.8333 27.5,60.1667 27.5,61.5C 9.50173,61.1907 3.66839,52.524 10,35.5C 13.4773,31.1776 17.9773,29.1776 23.5,29.5C 23.1291,18.8985 27.7958,11.5652 37.5,7.5 Z"/></g>
<g><path style="opacity:0.821" fill="#000000" d="M 44.5,39.5 C 48.1817,39.3347 51.8484,39.5014 55.5,40C 51.1667,44.3333 46.8333,48.6667 42.5,53C 45.5,53.3333 48.5,53.6667 51.5,54C 44.3153,60.6858 36.9819,67.1858 29.5,73.5C 31.6971,68.3257 34.6971,63.159 38.5,58C 36.0995,57.8142 33.7662,57.3142 31.5,56.5C 36.0846,50.9834 40.418,45.3167 44.5,39.5 Z"/></g>
<g><path style="opacity:0.788" fill="#000000" d="M 56.5,53.5 C 60.5138,53.3345 64.5138,53.5012 68.5,54C 64.1667,58.3333 59.8333,62.6667 55.5,67C 58.5,67.3333 61.5,67.6667 64.5,68C 57.3153,74.6858 49.9819,81.1858 42.5,87.5C 41.5923,86.21 41.759,84.8767 43,83.5C 45.6244,79.752 48.1244,75.9187 50.5,72C 48.0995,71.8142 45.7662,71.3142 43.5,70.5C 48.0846,64.9834 52.418,59.3167 56.5,53.5 Z"/></g>
</svg>
