<?xml version="1.0" encoding="UTF-8"?>
<!DOCTYPE svg PUBLIC "-//W3C//DTD SVG 1.1//EN" "http://www.w3.org/Graphics/SVG/1.1/DTD/svg11.dtd">
<svg xmlns="http://www.w3.org/2000/svg" version="1.1" width="64px" height="64px" style="shape-rendering:geometricPrecision; text-rendering:geometricPrecision; image-rendering:optimizeQuality; fill-rule:evenodd; clip-rule:evenodd" xmlns:xlink="http://www.w3.org/1999/xlink">
<g><path style="opacity:0.616" fill="#000000" d="M 24.5,-0.5 C 28.5,-0.5 32.5,-0.5 36.5,-0.5C 40.995,1.31322 44.6617,4.31322 47.5,8.5C 60.5696,12.2819 63.903,19.9485 57.5,31.5C 57.5,30.8333 57.1667,30.5 56.5,30.5C 59.7964,20.0894 56.1297,13.7561 45.5,11.5C 39.5403,2.25639 31.5403,0.0897281 21.5,5C 17.8957,7.70757 15.3957,11.2076 14,15.5C 6.21161,17.9549 3.87828,22.9549 7,30.5C 10.3132,33.4076 14.1465,35.0743 18.5,35.5C 12.2021,38.4614 7.03542,36.7948 3,30.5C 0.680391,21.8058 3.68039,15.8058 12,12.5C 14.3531,6.31536 18.5198,1.98203 24.5,-0.5 Z"/></g>
<g><path style="opacity:0.822" fill="#000000" d="M 18.5,35.5 C 16.8326,26.9999 20.166,23.8332 28.5,26C 30.6187,28.2185 30.952,30.7185 29.5,33.5C 28.376,32.086 27.376,30.586 26.5,29C 22.3333,27.8333 20.8333,29.3333 22,33.5C 22.7504,34.1258 23.5838,34.6258 24.5,35C 37.1798,35.1674 49.8465,35.6674 62.5,36.5C 48.5119,37.6661 34.5119,37.8328 20.5,37C 19.9558,36.2828 19.2891,35.7828 18.5,35.5 Z"/></g>
<g><path style="opacity:0.398" fill="#000000" d="M 56.5,30.5 C 57.1667,30.5 57.5,30.8333 57.5,31.5C 57.4894,33.6859 56.4894,34.5192 54.5,34C 53.1602,31.8511 53.8269,30.6845 56.5,30.5 Z"/></g>
<g><path style="opacity:0.854" fill="#000000" d="M -0.5,48.5 C -0.5,46.5 -0.5,44.5 -0.5,42.5C 1.83574,40.6093 4.5024,40.1093 7.5,41C 9.03683,42.1096 9.7035,43.6096 9.5,45.5C 7.26271,44.551 4.92937,43.8844 2.5,43.5C 2.22672,45.451 2.89339,46.951 4.5,48C 13.1667,48.6667 21.8333,48.6667 30.5,48C 28.3271,45.1076 27.9937,41.941 29.5,38.5C 30.086,38.7093 30.586,39.0426 31,39.5C 31.3333,41.5 31.6667,43.5 32,45.5C 31.1431,39.3536 33.6431,37.187 39.5,39C 40.3366,40.0113 40.67,41.1779 40.5,42.5C 39.0695,42.5792 37.7362,42.2458 36.5,41.5C 35.2888,42.2739 35.2888,43.1072 36.5,44C 45.1858,44.1681 53.8525,44.6681 62.5,45.5C 25.2727,46.2036 25.2727,47.5369 62.5,49.5C 42.1749,50.6664 21.8415,50.8331 1.5,50C 0.955796,49.2828 0.28913,48.7828 -0.5,48.5 Z"/></g>
<g><path style="opacity:0.86" fill="#000000" d="M 14.5,63.5 C 11.8333,63.5 9.16667,63.5 6.5,63.5C 3.5885,61.0421 2.92183,58.0421 4.5,54.5C 5.80638,55.9122 6.63971,57.5789 7,59.5C 7.23622,57.236 7.73622,55.0693 8.5,53C 23.8442,52.1671 39.1775,52.3338 54.5,53.5C 40.1783,54.3328 25.8449,54.8328 11.5,55C 10.2888,55.8928 10.2888,56.7261 11.5,57.5C 12.7362,56.7542 14.0695,56.4208 15.5,56.5C 15.5674,59.766 13.9008,61.266 10.5,61C 12.437,61.1216 13.7703,61.955 14.5,63.5 Z"/></g>
<g><path style="opacity:1" fill="#000000" d="M 56.5,52.5 C 58.337,52.6395 58.6704,53.3061 57.5,54.5C 56.7025,54.0431 56.3691,53.3764 56.5,52.5 Z"/></g>
</svg>
